<svg width="356" height="90" viewBox="0 0 356 90" fill="none" xmlns="http://www.w3.org/2000/svg">
<g clip-path="url(#clip0_60_52)">
<path d="M3.34 81.16C15.82 60.3 43.7 52.27 64.15 63.65C70.48 47.16 83.15 33.65 98.51 27.03C106.162 23.7547 114.424 22.1447 122.746 22.3068C131.068 22.4688 139.261 24.3993 146.78 27.97C146.96 28.06 155.37 17.81 156.3 16.88C159.678 13.3652 163.481 10.2848 167.62 7.71C179 0.940005 191 -1.48 203.8 0.890005C215.255 3.06864 225.635 9.06045 233.25 17.89C236.372 21.5031 238.962 25.544 240.94 29.89C246.233 27.3092 252.041 25.9604 257.93 25.9448C263.818 25.9293 269.634 27.2473 274.94 29.8C285.57 35 294 45.27 297.41 57.32C319.75 54.8 342.97 66.62 355.41 86.82C356.14 88 356.15 89.55 354.41 89.55H0L3.34 81.16Z" fill="url(#paint0_linear_60_52)"/>
</g>
<defs>
<linearGradient id="paint0_linear_60_52" x1="177.45" y1="111.58" x2="180.74" y2="-42.16" gradientUnits="userSpaceOnUse">
<stop offset="0.19" stop-color="white" stop-opacity="0"/>
<stop offset="1" stop-color="white"/>
</linearGradient>
<clipPath id="clip0_60_52">
<rect width="355.86" height="89.55" fill="white"/>
</clipPath>
</defs>
</svg>
