<svg width="28" height="29" viewBox="0 0 28 29" fill="none" xmlns="http://www.w3.org/2000/svg">
<g clip-path="url(#clip0_24_1213)">
<path d="M27.469 13.8698L26.8947 13.6969C24.0079 12.8286 21.3839 11.2205 19.2697 9.02413C17.1555 6.8277 15.6206 4.11516 14.8095 1.14186L14.6483 0.557991C14.6204 0.402321 14.5403 0.261603 14.4218 0.160305C14.3033 0.0590075 14.154 0.00353622 13.9998 0.00353622C13.8456 0.00353622 13.6962 0.0590075 13.5777 0.160305C13.4593 0.261603 13.3791 0.402321 13.3512 0.557991L13.19 1.1493C12.3782 4.12138 10.8429 6.83257 8.72874 9.02767C6.61454 11.2228 3.99092 12.8296 1.10483 13.6969L0.532371 13.8698C0.377939 13.9155 0.242169 14.0115 0.145535 14.1433C0.0489007 14.2751 -0.00335693 14.4356 -0.00335693 14.6006C-0.00335693 14.7655 0.0489007 14.926 0.145535 15.0578C0.242169 15.1896 0.377939 15.2856 0.532371 15.3313L1.10846 15.4968C4.00549 16.3292 6.64851 17.9045 8.78872 20.0746C10.9289 22.2447 12.4959 24.938 13.3422 27.9012L13.5106 28.4888C13.5425 28.6108 13.6042 28.7224 13.6898 28.8132C13.7753 28.904 13.882 28.9709 13.9998 29.0076C14.1182 28.9714 14.2256 28.9047 14.3118 28.8139C14.3981 28.7231 14.4603 28.6112 14.4925 28.4888L14.6592 27.9012C15.5046 24.9391 17.0702 22.2465 19.2088 20.0765C21.3473 17.9065 23.9885 16.3305 26.8838 15.4968L27.4599 15.3313C27.6146 15.2867 27.751 15.1916 27.8485 15.0604C27.9459 14.9292 27.9992 14.769 28.0002 14.6041C28.0012 14.4391 27.95 14.2783 27.8541 14.1458C27.7583 14.0134 27.6231 13.9165 27.469 13.8698Z" fill="#FE346E"/>
</g>
<defs>
<clipPath id="clip0_24_1213">
<rect width="28" height="29" fill="white"/>
</clipPath>
</defs>
</svg>
