<?xml version="1.0" encoding="utf-8"?>
<!-- Generator: Adobe Illustrator 28.3.0, SVG Export Plug-In . SVG Version: 6.00 Build 0)  -->
<svg version="1.1" id="Layer_1" xmlns="http://www.w3.org/2000/svg" xmlns:xlink="http://www.w3.org/1999/xlink" x="0px" y="0px"
	 viewBox="0 0 8205 8448" style="enable-background:new 0 0 8205 8448;" xml:space="preserve">
<style type="text/css">
	.st0{display:none;}
	.st1{display:inline;opacity:0.8;}
	.st2{fill:#EF3F70;}
	.st3{display:inline;}
	.st4{fill:#FFFFFF;}
	.st5{fill:#D2FAFB;}
	.st6{fill:#FE346E;}
	.st7{fill:#D6EEF0;}
</style>
<g class="st0">
	<g class="st1">
		<path class="st2" d="M788.13,3886.32c-0.07,0.01-0.14,0.03-0.2,0.04c-6.39-2.98-12.88-3.81-19.43-2.48
			c-3.56,0.72-6.98,2.03-10.29,3.94c-7.32,4.5-15.46,7.71-24.44,9.63c-0.27,0.06-0.54,0.12-0.82,0.17c-14.01,3-27.5,2.53-40.57-1.43
			c-13.08-3.96-24.42-10.65-34.05-20.13c-9.62-9.48-16.11-20.89-19.32-34.29c-3.25-13.53-2.71-26.71,1.75-39.52
			c4.45-12.81,11.99-23.92,22.62-33.27c10.63-9.34,23.4-15.64,38.23-18.81c5.41-1.16,10.52-1.69,15.3-1.59
			c4.78,0.1,9.19,0.55,13.21,1.36c6.04,1.22,11.76,3.1,17.15,5.64c5.39,2.54,8.68,5.74,9.88,9.6c0.03,0.13,0.05,0.26,0.08,0.39
			c0.83,4.2-1.41,7.37-6.71,9.52c-0.14,0.03-0.28,0.06-0.42,0.08c-2.54,0.51-4.86,0.16-6.94-1.06c-2.09-1.21-3.37-3-3.85-5.36
			c-0.43-2.1,0.07-4.18,1.5-6.24c1.43-2.06,3.49-3.37,6.19-3.91c0.14-0.03,0.28-0.06,0.43-0.09c-5.42-2.73-12.04-4.88-19.85-6.41
			c-7.81-1.53-16.32-1.46-25.49,0.23c-11.68,2.5-21.62,8.08-29.74,16.69c-8.12,8.61-13.74,19-16.84,31.12
			c-3.11,12.13-3.11,24.64-0.08,37.53c3.03,12.9,8.58,24.1,16.58,33.65c8,9.55,17.3,16.54,27.9,21.02
			c10.6,4.48,21.44,5.52,32.6,3.13c8.03-1.72,15.16-4.34,21.4-7.89c6.24-3.54,11.82-7.58,16.75-12.12
			c-3.87-19.29-7.73-38.58-11.6-57.87c-14.44,2.89-28.86,5.89-43.26,8.98c-0.17-0.79-0.34-1.57-0.51-2.36
			c19.43-4.17,38.89-8.16,58.37-11.97C778.47,3836.94,783.3,3861.63,788.13,3886.32z"/>
		<path class="st2" d="M800.44,3884.14c1.99-2.15,3.35-4.29,4.09-6.4c0.73-2.12,0.79-4.82,0.17-8.1
			c-3.93-20.78-7.86-41.55-11.79-62.33c-0.62-3.28-1.67-5.78-3.16-7.47c-1.49-1.69-3.57-3.1-6.26-4.22
			c9.6-3.06,16.66-6.14,21.17-9.29c0.92,5,1.84,10,2.76,15c0.86-1.65,2.36-3.87,4.54-6.65c2.17-2.77,5.12-5.52,8.85-8.23
			c3.73-2.71,8.34-4.55,13.84-5.51c1.07-0.12,2.14-0.24,3.21-0.35c6.31-0.42,11.49,0.2,15.54,1.82c4.04,1.63,6.82,3.54,8.34,5.73
			c0.8,1.36,1.31,2.7,1.53,4.02c0.48,2.91-0.53,5.52-3.02,7.83c-1.41,1.05-2.81,1.69-4.21,1.93c-3.08,0.52-5.92-0.49-8.51-3.03
			c-0.93-1.2-1.51-2.46-1.73-3.78c-0.5-2.9,0.62-5.61,3.38-8.11c1.29-0.9,2.58-1.46,3.84-1.67c-5.02-2.27-10.09-3.1-15.21-2.49
			c-0.86,0.08-1.71,0.16-2.57,0.24c-5.35,0.93-9.94,2.9-13.76,5.9c-3.81,3-6.85,6.1-9.08,9.29c-2.24,3.2-3.6,5.8-4.11,7.79
			c3.73,20.27,7.47,40.54,11.2,60.8c0.61,3.29,1.67,5.78,3.18,7.48c1.51,1.69,3.52,3.2,6.02,4.51
			C819.29,3880.58,809.86,3882.34,800.44,3884.14z M956.5,3919.73c2.04-2.05,3.46-4.11,4.28-6.18c0.81-2.07,0.98-4.77,0.52-8.08
			c-4.49-31.94-8.98-63.88-13.47-95.81c-0.43-3.05,0.24-5.91,2-8.59c3.3-4.99,6.61-9.97,9.94-14.95
			c2.38,16.96,4.75,33.93,7.13,50.89c4.64,5.17,9.86,8.76,15.66,10.77c5.8,2,11.44,2.66,16.95,1.97c0.76-0.1,1.51-0.19,2.27-0.29
			c9.93-2.19,17.36-7.73,22.35-16.67c4.98-8.94,6.81-19.51,5.41-31.75c-1.42-12.36-5.79-22.34-13.18-29.89
			c-7.4-7.55-15.99-11.14-25.72-10.73c-0.42,0.05-0.85,0.11-1.27,0.16c-4.81,0.6-9.25,1.98-13.28,4.12
			c-5.1,2.82-9.21,6.24-12.33,10.23c-3.12,4-5.75,7.63-7.88,10.89c-3.12,4.89-6.23,9.78-9.32,14.67
			c-5.08,8.55-9.38,15.66-12.96,21.32c-2.1,3.15-4.25,6.37-6.45,9.67c0.27,1.85,0.55,3.71,0.82,5.56c1.14,6.73,2.1,11.32,2.88,13.78
			c0.71,1.92,1.79,3.32,3.25,4.19c1.46,0.87,3.02,1.18,4.67,0.94c-3.39,3.74-6.85,5.87-10.42,6.41c-2.61,0.39-5.18-0.17-7.73-1.68
			c-2.55-1.51-4.45-5.01-5.71-10.5c-1.72,2.56-3.06,4.4-4.02,5.49c-2.47,3.09-5.58,5.81-9.28,8.15c-3.71,2.35-8.3,3.96-13.78,4.85
			c-2.06,0.33-4.2,0.55-6.44,0.65c-8.28,0.14-15.26-1.63-20.98-5.33c-5.72-3.7-9.1-8.45-10.1-14.25c-0.23-1.32-0.32-2.66-0.27-4.03
			c1.07-9.42,5.51-16.4,13.32-20.91c7.82-4.5,15.43-8.22,22.82-11.17c3.22-1.33,7.43-3.18,12.64-5.55c5.21-2.37,8.04-4.86,8.5-7.51
			c-0.15-0.99-0.3-1.98-0.46-2.98c-0.46-3.04-1.41-6.41-2.84-10.12c-1.43-3.71-3.88-6.75-7.35-9.12c-3.48-2.37-8.29-3.35-14.44-2.91
			c-0.63,0.1-1.27,0.2-1.9,0.3c-1.98,0.32-4.34,0.9-7.1,1.75c2.86-1.96,5.75-3.37,8.65-4.24c1.47-0.3,2.94-0.6,4.42-0.91
			c7.2-1.14,13.14-0.66,17.78,1.4c4.65,2.07,8.28,4.91,10.91,8.5c2.62,3.6,4.51,7.35,5.66,11.23c1.15,3.89,1.92,7.16,2.31,9.8
			c0.64,4.3,1.27,8.6,1.91,12.91c0.67,4.5-0.31,8.97-2.9,13.42c-2.78,4.14-5.55,8.28-8.31,12.42c-1.89-12.37-3.78-24.74-5.67-37.11
			c-3.65,3.27-8.76,6.26-15.33,8.99c-6.57,2.73-12.57,6.28-17.99,10.63c-5.42,4.35-8.17,10.48-8.27,18.37
			c0.07,0.8,0.13,1.61,0.19,2.41c0.4,2.38,1.34,5.24,2.82,8.58c1.48,3.35,3.82,6.14,7.02,8.4c3.2,2.25,7.44,3.21,12.73,2.9
			c0.69-0.11,1.37-0.22,2.06-0.33c8.37-1.35,15.15-6,20.4-13.99c4.9-7.52,8.7-13.31,11.35-17.36c4.53-6.63,12.12-18.92,23.03-36.81
			c-0.62-4.44-1.25-8.88-1.87-13.32c-0.48-3.44-1.43-6.05-2.82-7.81c-1.4-1.76-3.41-3.27-6.04-4.52c0.92-0.13,1.84-0.26,2.75-0.39
			c4.23-0.6,7.73-1.6,10.49-2.99c2.76-1.4,5.49-3.29,8.19-5.68c0.69,5.11,1.39,10.21,2.08,15.32c4.65-5.9,9.23-10.42,13.71-13.57
			c4.48-3.15,10.05-5.15,16.71-5.99c0.35-0.04,0.71-0.09,1.06-0.13c14.41-1,26.98,2.45,37.6,10.26
			c10.62,7.82,16.58,18.28,18.01,31.32c1.43,13.04-2.21,24.7-10.76,35.04c-8.56,10.34-19.52,16.31-32.99,18
			c-14.03,1.76-25.51-1.7-34.58-10.47c2.8,20.62,5.6,41.24,8.4,61.86c0.43,3.18,1.35,5.66,2.76,7.42c1.4,1.77,3.3,3.37,5.69,4.81
			C975.09,3917.11,965.8,3918.4,956.5,3919.73z"/>
		<path class="st2" d="M1137.69,3838.03c2.21-1.79,3.8-3.7,4.75-5.72c0.95-2.02,1.3-4.7,1.03-8.04
			c-0.91-11.41-1.81-22.81-2.72-34.22c-0.66-8.27-1.85-15.69-3.58-22.27c-1.73-6.57-4.7-11.64-8.92-15.19
			c-4.22-3.54-10.4-5.18-18.53-4.87c-0.5,0.04-0.99,0.09-1.49,0.13c-5.68,0.5-11.32,2.29-16.89,5.37
			c-5.58,3.08-10.13,7.76-13.64,14.02c2.05,20.78,4.09,41.55,6.14,62.33c0.33,3.33,1.18,5.9,2.54,7.72c1.36,1.81,3.23,3.42,5.58,4.8
			c-9.51,0.92-19.02,1.88-28.53,2.88c2.17-1.84,3.75-3.79,4.72-5.84c0.97-2.05,1.29-4.74,0.95-8.07c-4.25-41.2-8.5-82.4-12.76-123.6
			c-0.34-3.33-1.23-5.89-2.65-7.7c-1.43-1.8-3.45-3.38-6.07-4.71c10.12-2.28,17.53-4.76,22.23-7.51c2.47,25.04,4.93,50.08,7.4,75.11
			c6.73-9.94,17.49-15.95,32.21-17.92c0.43-0.04,0.85-0.07,1.28-0.11c11.37-1,20.23,0.47,26.53,4.33
			c6.31,3.86,10.82,9.32,13.55,16.36c2.73,7.04,4.42,14.9,5.06,23.57c0.85,11.34,1.7,22.69,2.54,34.03
			c0.25,3.33,1.04,5.96,2.36,7.88c1.32,1.91,3.15,3.59,5.48,5.03C1156.74,3836.51,1147.21,3837.25,1137.69,3838.03z"/>
		<path class="st2" d="M1178.69,3834.94c2.24-1.76,3.84-3.68,4.82-5.76c0.97-2.08,1.35-4.72,1.14-7.92
			c-1.4-21.1-2.8-42.2-4.21-63.29c-0.22-3.34-0.96-5.94-2.23-7.8c-1.27-1.86-3.17-3.58-5.7-5.15c9.86-1.88,17.22-4.02,22.07-6.47
			c1.68,27.25,3.36,54.5,5.04,81.75c0.21,3.34,0.92,5.94,2.15,7.81c1.22,1.87,3.06,3.53,5.51,5
			C1197.76,3833.68,1188.22,3834.29,1178.69,3834.94z M1184.4,3726.73c-2.57,0.17-4.77-0.52-6.59-2.08
			c-1.83-1.55-2.82-3.46-2.97-5.74c-0.16-2.4,0.56-4.46,2.18-6.18c1.62-1.72,3.72-2.66,6.3-2.83c2.44-0.16,4.61,0.51,6.5,2
			c1.89,1.49,2.91,3.44,3.06,5.84c0.14,2.27-0.63,4.3-2.31,6.08C1188.87,3725.61,1186.82,3726.57,1184.4,3726.73z"/>
		<path class="st2" d="M1268.87,3830.05c-13.55,0.54-25.32-3.56-35.45-12.35c-10.12-8.79-15.61-19.7-16.34-32.8
			c-0.73-13.09,3.53-24.6,12.91-34.46c9.38-9.86,21.1-15.1,35.07-15.66c7.97-0.32,15.09,1.03,21.32,4.04
			c2.75,1.25,5.8,3.09,9.14,5.53c3.34,2.44,5.06,5.54,5.18,9.28c0,0.07,0,0.13,0.01,0.2c0.07,2.28-0.73,4.27-2.37,5.99
			c-1.64,1.73-3.74,2.62-6.28,2.7c-2.4,0.08-4.51-0.69-6.33-2.3c-1.83-1.61-2.77-3.55-2.85-5.83c-0.08-2.27,0.73-4.28,2.45-6.01
			c1.72-1.73,3.78-2.64,6.2-2.71c0.35-0.01,0.71-0.02,1.06-0.03c-8.14-5.63-16.51-8.29-25.05-7.95c-0.78,0.03-1.56,0.06-2.35,0.09
			c-10.35,1.35-18.37,6.31-24,14.81c-5.63,8.51-8.1,18.99-7.47,31.42c0.62,12.3,4.33,22.53,11.05,30.71
			c6.72,8.19,14.71,12.48,24.01,12.92c0.69-0.03,1.38-0.06,2.08-0.08c5.26-0.21,10.5-1.74,15.74-4.6
			c5.24-2.86,9.67-6.75,13.28-11.67c0.65,0.72,1.3,1.43,1.94,2.15c-4.58,5.09-8.87,8.81-12.88,11.15
			c-4.02,2.34-7.73,3.81-11.17,4.41C1274.33,3829.6,1271.36,3829.95,1268.87,3830.05z"/>
		<path class="st2" d="M1459.68,3812.91c-5.11,4.98-10.09,8.71-14.98,11.18c-4.89,2.47-10.93,3.66-18.12,3.58
			c-13.56-0.13-25.11-4.81-34.78-14.1c-9.67-9.29-14.6-20.46-14.68-33.58c-0.08-13.11,4.74-24.39,14.6-33.77
			c9.85-9.38,21.82-14.03,35.79-13.9c7.27,0.07,13.74,1.5,19.39,4.26c5.65,2.77,10.35,6.47,14.09,11.1
			c0.51-25.15,1.02-50.31,1.53-75.46c5.03,2.38,12.61,4.28,22.72,5.76c-2.36,1.54-4.18,3.27-5.46,5.18
			c-1.28,1.91-1.96,4.54-2.04,7.88c-0.98,39.4-1.97,78.8-2.95,118.2c-0.08,3.34,0.44,6,1.57,7.97c1.13,1.97,2.78,3.79,4.96,5.45
			c-0.9-0.02-1.8-0.05-2.7-0.07c-4.16-0.11-7.67,0.31-10.53,1.25c-2.86,0.94-5.77,2.38-8.72,4.33
			C1459.47,3823.08,1459.57,3818,1459.68,3812.91z M1428.69,3824.88c5.68,0.06,11.26-1.34,16.79-4.2
			c5.52-2.86,10.29-7.12,14.3-12.79c0.37-18.4,0.74-36.79,1.12-55.19c-3.71-5.83-8.39-10.17-14.03-13
			c-5.64-2.83-11.33-4.28-17.02-4.34c-0.78-0.01-1.57-0.02-2.35-0.02c-10.41,0.84-18.69,5.38-24.81,13.6
			c-6.12,8.22-9.14,18.56-9.13,31.01c0.01,12.31,3.24,22.65,9.61,31.02c6.38,8.38,14.17,13,23.44,13.9
			C1427.3,3824.87,1427.99,3824.88,1428.69,3824.88z"/>
		<path class="st2" d="M1542.76,3830.95c-13.55-0.63-24.92-5.73-34.25-15.37c-9.32-9.64-13.84-20.98-13.44-34.09
			c0.41-13.1,5.64-24.2,15.83-33.21c10.19-9.01,22.33-13.22,36.29-12.57c0.07,0,0.14,0.01,0.21,0.01
			c12.1,0.57,21.85,4.94,29.15,13.05c7.3,8.12,10.63,17,10.05,26.62c-0.01,0.13-0.02,0.27-0.02,0.4
			c-24.62-1.46-49.25-2.65-73.89-3.54c-0.68,3.19-1.08,6.39-1.19,9.6c-0.45,12.44,2.4,22.92,8.47,31.46
			c6.07,8.54,13.69,13.34,22.93,14.45c0.48,0.02,0.97,0.05,1.45,0.07c6.65,0.31,12.56-0.96,17.79-3.84
			c5.22-2.87,9.82-6.78,13.8-11.71c3.97-4.93,7.48-10.46,10.52-16.58c5.6-11.46,11.5-21.82,17.7-31.08
			c6.2-9.25,14.59-15.87,25.15-19.81c7.17-2.43,14.47-3.36,21.87-2.78c1.91,0.28,3.82,0.57,5.73,0.86
			c9.99,2.15,18.46,6.84,25.39,14.03c0.54,0.32,1.54,1.52,3,3.59c1.45,2.08,2.04,4.59,1.78,7.52c-0.01,0.13-0.02,0.27-0.04,0.4
			c-0.35,2.25-1.43,4.07-3.26,5.45c-1.83,1.38-3.94,1.97-6.33,1.76c-0.49-0.11-0.97-0.22-1.46-0.33c-4.27-1.45-6.52-4.25-6.73-8.44
			c0.01-0.13,0.02-0.27,0.03-0.4c0.2-2.27,1.21-4.16,3.05-5.68c1.84-1.52,3.96-2.18,6.37-1.97c0.21,0.02,0.42,0.04,0.64,0.06
			c0.56,0.12,1.12,0.23,1.68,0.35c-8.48-8.94-18.46-13.88-29.82-14.78c-8.67-0.68-17,0.78-24.96,4.37
			c-10.09,5.46-17.99,13.18-23.72,23.14c-5.73,9.96-10.27,18.53-13.65,25.7c-3.46,6.23-7.23,11.9-11.28,17.03
			c-4.06,5.13-8.87,9.21-14.45,12.27C1557.57,3830,1550.78,3831.33,1542.76,3830.95z M1575.33,3772.93
			c-0.33-6.72-1.19-12.23-2.59-16.53s-3.96-8.22-7.69-11.77c-3.73-3.54-9.17-5.5-16.28-5.83c-0.57-0.03-1.14-0.05-1.71-0.08
			c-8.57,0.27-15.83,3.21-21.73,8.8c-5.91,5.59-9.94,13.11-12.12,22.54C1533.92,3770.81,1554.63,3771.77,1575.33,3772.93z
			 M1643.27,3837.25c-10.07-0.79-19.01-3.79-26.85-9.04c-3.58-2.53-6.68-5.53-9.31-8.99c-2.63-3.46-3.83-6.99-3.59-10.6
			c0.15-2.27,1.12-4.18,2.9-5.74c1.79-1.56,3.86-2.26,6.24-2.1c0.21,0.01,0.42,0.03,0.63,0.04c4.71,0.86,7.32,3.66,7.82,8.39
			c-0.01,0.13-0.02,0.27-0.03,0.4c-0.17,2.4-1.15,4.38-2.93,5.93c-1.79,1.55-3.93,2.24-6.42,2.07c-0.76-0.12-1.52-0.24-2.28-0.36
			c3.05,4.5,6.88,7.98,11.5,10.46c4.62,2.47,9.09,4.18,13.39,5.11c4.31,0.93,7.29,1.47,8.95,1.6c4.15,0.33,8.75,0.09,13.83-0.7
			c5.08-0.79,9.57-2.49,13.5-5.1c3.92-2.61,6.12-6.51,6.58-11.71c0.04-0.47,0.08-0.93,0.12-1.4c-0.58-6.1-5.08-10.77-13.53-13.96
			c-8.45-3.19-17.61-6.51-27.49-9.94c-9.88-3.43-17.2-8.63-21.94-15.66c0-0.07,0.01-0.13,0.01-0.2c-1.28-1.96-1.81-4.55-1.6-7.75
			c0.09-1.33,0.39-2.59,0.89-3.76c1.48-2.98,4.39-6.21,8.77-9.66c-0.13,0.86-0.26,1.73-0.4,2.59c-0.32,4.54,0.44,7.88,2.28,10.02
			c4.6,5.16,11.88,9.14,21.84,11.99c9.96,2.86,19.21,6.48,27.72,10.85c8.52,4.37,12.95,11.37,13.33,20.94
			c-0.05,0.6-0.11,1.2-0.17,1.8c-0.73,8-5.48,14.27-14.18,18.88C1664.15,3836.26,1654.31,3838.11,1643.27,3837.25z"/>
		<path class="st2" d="M1696.87,3841.92c2.5-1.37,4.39-3.01,5.7-4.9c1.3-1.89,2.11-4.43,2.42-7.63c2.06-21.04,4.12-42.09,6.18-63.13
			c0.32-3.33,0.02-6.01-0.93-8.06c-0.95-2.04-2.54-4.04-4.78-6.01c10.04-0.25,17.65-1.16,22.84-2.78
			c-2.79,27.16-5.58,54.32-8.37,81.47c-0.34,3.33-0.06,6.01,0.85,8.06c0.91,2.04,2.44,3.99,4.62,5.83
			C1715.89,3843.78,1706.38,3842.83,1696.87,3841.92z M1720.16,3736.08c-2.57-0.26-4.62-1.3-6.17-3.13c-1.55-1.83-2.22-3.88-2-6.14
			c0.23-2.4,1.29-4.31,3.16-5.74c1.88-1.43,4.1-2.02,6.68-1.76c2.43,0.24,4.46,1.25,6.1,3.03c1.63,1.78,2.31,3.87,2.07,6.26
			c-0.23,2.27-1.33,4.14-3.28,5.62C1724.77,3735.71,1722.59,3736.32,1720.16,3736.08z"/>
		<path class="st2" d="M1779.98,3933.92c-1.41-0.18-2.81-0.35-4.22-0.53c-8.85-1.1-17.27-3.36-25.31-6.78
			c-8.04-3.43-14.45-8.18-19.24-14.28c-4.79-6.11-6.73-13.68-5.77-22.73c0.08-0.8,0.17-1.6,0.25-2.4
			c1.47-7.38,4.11-12.78,7.94-16.21c3.83-3.42,9.29-5.89,16.4-7.37c-4.84,7.13-7.83,13.6-9.02,19.39c-0.07,0.67-0.15,1.33-0.22,2
			c-0.58,5.19-0.23,10.44,1.02,15.77c1.25,5.32,3.92,10.17,7.99,14.55c4.07,4.37,9.9,7.82,17.5,10.36
			c5.13,1.56,9.96,2.64,14.53,3.21c8.72,1.1,16.22,0.6,22.52-1.53c6.3-2.13,11.27-5.16,14.9-9.12c3.64-3.96,5.89-8.1,6.78-12.44
			c0.2-0.92,0.39-1.84,0.59-2.75c1.19-8.48-1.34-15.19-7.61-20.1c-6.27-4.9-16.72-8.88-31.36-11.8c-12.7-2.81-22.55-5.76-29.55-8.93
			c-7-3.17-11.78-6.39-14.33-9.71c-2.55-3.31-3.66-6.56-3.31-9.76c0.35-3.19,1.65-6.18,3.92-8.96c2.26-2.78,4.67-5.14,7.2-7.07
			c2.53-1.94,4.48-3.3,5.84-4.09c-9.78-9.2-14.07-19.75-12.77-31.72c1.19-10.91,6.8-19.69,16.93-26.29
			c10.12-6.59,21.75-9.11,34.8-7.49c0.92,0.11,1.84,0.23,2.76,0.34c4.81,0.6,10.53,0.08,17.16-1.56
			c6.63-1.63,12.15-5.45,16.59-11.47c-1.37,0.49-2.83,0.63-4.4,0.42c-2.42-0.32-4.41-1.43-5.97-3.32c-1.56-1.89-2.2-3.96-1.9-6.22
			c0.62-4.78,3.99-7.18,10.1-7.17c2.58,0.34,4.62,1.43,6.11,3.25c1.5,1.82,2.09,3.93,1.76,6.32c-0.03,0.2-0.05,0.4-0.08,0.6
			c-0.33,2.39-1.17,4.57-2.52,6.55c-1.36,1.98-2.85,3.66-4.48,5.07c-6.58,5.87-14.43,9.15-23.58,9.86
			c10.34,3.62,18.35,9.38,24.03,17.24c5.68,7.86,7.85,16.38,6.57,25.52c-1.51,10.87-7.37,19.51-17.48,25.97
			c-10.12,6.47-21.55,8.89-34.41,7.29c-10.51-1.3-19.52-5.13-27.07-11.52c-6.1,4.15-9.32,7.9-9.69,11.22
			c-0.34,3.06,1.17,5.79,4.53,8.19c8.59,5.56,18.92,9.5,31.04,11.89c12.12,2.38,22.64,5.75,31.55,10.06
			c7.26,4.09,12.1,8.85,14.54,14.26c2.44,5.41,3.25,10.96,2.44,16.66c-0.55,3.84-1.72,7.73-3.51,11.67
			c-4.5,9.37-11.48,16.19-20.95,20.51C1800.02,3933.08,1790.2,3934.8,1779.98,3933.92z M1787.1,3833.66
			c8.16,1.01,15.63-1.7,22.48-8.16c6.84-6.46,10.98-14.85,12.37-25.19c1.37-10.21-0.45-19.33-5.49-27.35
			c-5.05-8.01-11.78-12.56-20.13-13.59c-8.5-1.05-16.16,1.7-22.95,8.25c-6.78,6.55-10.73,14.96-11.9,25.2
			c-1.19,10.37,0.74,19.51,5.73,27.44C1772.19,3828.16,1778.8,3832.63,1787.1,3833.66z"/>
		<path class="st2" d="M1918.1,3870.99c2.59-1.19,4.6-2.66,6.02-4.38c1.42-1.73,2.41-4.24,2.97-7.54
			c1.91-11.28,3.83-22.56,5.74-33.84c1.39-8.18,2.09-15.66,2.08-22.45c-0.01-6.79-1.65-12.43-4.95-16.91
			c-3.3-4.48-8.87-7.58-16.71-9.25c-0.49-0.08-0.99-0.16-1.48-0.24c-5.78-0.93-11.77-0.58-17.94,1.03
			c-6.17,1.62-11.67,5.05-16.48,10.28c-3.11,20.64-6.21,41.29-9.32,61.93c-0.5,3.31-0.31,6.01,0.57,8.11
			c0.88,2.09,2.29,4.1,4.25,6.03c-9.47-1.44-18.94-2.85-28.41-4.2c2.56-1.26,4.53-2.76,5.91-4.52c1.38-1.76,2.31-4.3,2.79-7.61
			c3.05-20.92,6.09-41.85,9.14-62.77c0.48-3.31,0.3-6.01-0.55-8.09c-0.85-2.08-2.35-4.16-4.5-6.23c10.03,0.36,17.69-0.19,22.98-1.7
			c-0.73,4.83-1.45,9.66-2.18,14.49c8.99-8.12,20.9-11.25,35.65-9.28c0.63,0.1,1.27,0.2,1.91,0.31
			c10.87,1.76,18.87,5.31,23.98,10.59c5.11,5.28,8.13,11.68,9.06,19.17c0.93,7.5,0.65,15.46-0.82,23.9
			c-1.97,11.27-3.94,22.54-5.9,33.82c-0.58,3.29-0.45,6,0.38,8.12c0.82,2.11,2.2,4.16,4.11,6.12
			C1936.98,3874.2,1927.54,3872.58,1918.1,3870.99z"/>
		<path class="st2" d="M2007.47,3887.29c-13.36-2.63-23.95-9.37-31.85-20.3c-7.9-10.93-10.76-22.82-8.43-35.73
			c2.33-12.9,9.19-23.06,20.7-30.39c11.5-7.32,24.2-9.65,37.98-6.93c0.07,0.01,0.14,0.03,0.21,0.04
			c12.08,2.38,21.15,8.16,27.14,17.26c6,9.1,7.94,18.44,5.92,28c-24.34-5.06-48.72-9.83-73.13-14.31c-0.96,2.82-1.76,5.94-2.39,9.35
			c-2.25,12.11-0.95,22.76,3.85,31.97c4.79,9.21,11.65,15.16,20.61,17.89c0.94,0.25,1.88,0.51,2.83,0.76
			c6.96,1.38,13.29,0.75,19.03-1.91c5.74-2.65,11.19-6.45,16.37-11.38c5.18-4.93,10.39-10.44,15.65-16.5
			c5.25-6.07,10.87-11.87,16.87-17.42c0.96-4.45,1.93-8.89,2.89-13.34c0.71-3.27,0.68-5.98-0.1-8.13c-0.78-2.15-2.17-4.33-4.19-6.55
			c10.16,1.08,17.86,1.07,23.11-0.1c-1.01,4.57-2.03,9.15-3.04,13.72c1.6-1.29,4.11-2.69,7.52-4.19c3.41-1.5,7.41-2.62,11.99-3.37
			c4.58-0.74,9.32-0.55,14.21,0.58c0.84,0.19,1.68,0.39,2.51,0.58c6,2.08,10.53,4.73,13.6,7.94c3.07,3.2,4.8,6.1,5.22,8.67
			c0.39,1.47,0.4,2.92,0.06,4.35c-0.69,2.86-2.71,4.86-6.05,5.98c-1.54,0.32-3.01,0.32-4.39-0.01c-3.05-0.72-5.29-2.69-6.73-5.92
			c-0.53-1.5-0.64-2.9-0.33-4.2c0.67-2.86,2.77-4.92,6.29-6.15c1.58-0.45,3.06-0.52,4.46-0.18c-3.88-4.08-8.34-6.78-13.33-8.08
			c-0.89-0.28-1.78-0.55-2.68-0.83c-3.63-0.84-7.12-1.02-10.46-0.55c-3.34,0.47-6.44,1.21-9.31,2.21c-4.91,1.64-9.89,4.23-14.9,7.78
			c-5.02,3.55-9.67,7.36-13.97,11.42c-4.3,4.07-7.85,7.61-10.66,10.63c-2.82,3.02-4.5,4.82-5.05,5.38
			c-5.37,6.24-10.81,12.1-16.33,17.58c-5.51,5.47-11.59,9.68-18.24,12.62C2024.28,3888.49,2016.47,3889.06,2007.47,3887.29z
			 M2048.37,3834.72c0.66-6.7,0.58-12.28-0.24-16.75c-0.83-4.47-2.82-8.74-6.01-12.8c-3.19-4.06-8.29-6.8-15.31-8.19
			c-0.49-0.1-0.98-0.19-1.47-0.29c-8.7-1.03-16.41,0.79-23.1,5.44c-6.69,4.65-11.8,11.49-15.36,20.5
			C2007.41,3826.46,2027.91,3830.49,2048.37,3834.72z M2058.56,3897.79c2.65-1.07,4.72-2.44,6.22-4.1c1.5-1.66,2.67-4.11,3.52-7.35
			c2.21-10.2,4.42-20.4,6.63-30.61c0.9-4.18,3.07-7.82,6.5-10.91c4.67-4.12,9.35-8.23,14.05-12.33
			c-4.21,19.01-8.42,38.02-12.64,57.03c-0.59,3.29-0.55,6.01,0.12,8.15c0.67,2.13,1.92,4.23,3.74,6.28
			C2077.32,3901.86,2067.94,3899.81,2058.56,3897.79z"/>
	</g>
	<g class="st3">
		<g>
			<path class="st4" d="M781.13,3886.32c-0.07,0.01-0.14,0.03-0.2,0.04c-6.39-2.98-12.88-3.81-19.43-2.48
				c-3.56,0.72-6.98,2.03-10.29,3.94c-7.32,4.5-15.46,7.71-24.44,9.63c-0.27,0.06-0.54,0.12-0.82,0.17
				c-14.01,3-27.5,2.53-40.57-1.43c-13.08-3.96-24.42-10.65-34.05-20.13c-9.62-9.48-16.11-20.89-19.32-34.29
				c-3.25-13.53-2.71-26.71,1.75-39.52c4.45-12.81,11.99-23.92,22.62-33.27c10.63-9.34,23.4-15.64,38.23-18.81
				c5.41-1.16,10.52-1.69,15.3-1.59c4.78,0.1,9.19,0.55,13.21,1.36c6.04,1.22,11.76,3.1,17.15,5.64c5.39,2.54,8.68,5.74,9.88,9.6
				c0.03,0.13,0.05,0.26,0.08,0.39c0.83,4.2-1.41,7.37-6.71,9.52c-0.14,0.03-0.28,0.06-0.42,0.08c-2.54,0.51-4.86,0.16-6.94-1.06
				c-2.09-1.21-3.37-3-3.85-5.36c-0.43-2.1,0.07-4.18,1.5-6.24c1.43-2.06,3.49-3.37,6.19-3.91c0.14-0.03,0.28-0.06,0.43-0.09
				c-5.42-2.73-12.04-4.88-19.85-6.41c-7.81-1.53-16.32-1.46-25.49,0.23c-11.68,2.5-21.62,8.08-29.74,16.69
				c-8.12,8.61-13.74,19-16.84,31.12c-3.11,12.13-3.11,24.64-0.08,37.53c3.03,12.9,8.58,24.1,16.58,33.65
				c8,9.55,17.3,16.54,27.9,21.02c10.6,4.48,21.44,5.52,32.6,3.13c8.03-1.72,15.16-4.34,21.4-7.89c6.24-3.54,11.82-7.58,16.75-12.12
				c-3.87-19.29-7.73-38.58-11.6-57.87c-14.44,2.89-28.86,5.89-43.26,8.98c-0.17-0.79-0.34-1.57-0.51-2.36
				c19.43-4.17,38.89-8.16,58.37-11.97C771.47,3836.94,776.3,3861.63,781.13,3886.32z"/>
			<path class="st4" d="M793.44,3884.14c1.99-2.15,3.35-4.29,4.09-6.4c0.73-2.12,0.79-4.82,0.17-8.1
				c-3.93-20.78-7.86-41.55-11.79-62.33c-0.62-3.28-1.67-5.78-3.16-7.47c-1.49-1.69-3.57-3.1-6.26-4.22
				c9.6-3.06,16.66-6.14,21.17-9.29c0.92,5,1.84,10,2.76,15c0.86-1.65,2.36-3.87,4.54-6.65c2.17-2.77,5.12-5.52,8.85-8.23
				c3.73-2.71,8.34-4.55,13.84-5.51c1.07-0.12,2.14-0.24,3.21-0.35c6.31-0.42,11.49,0.2,15.54,1.82c4.04,1.63,6.82,3.54,8.34,5.73
				c0.8,1.36,1.31,2.7,1.53,4.02c0.48,2.91-0.53,5.52-3.02,7.83c-1.41,1.05-2.81,1.69-4.21,1.93c-3.08,0.52-5.92-0.49-8.51-3.03
				c-0.93-1.2-1.51-2.46-1.73-3.78c-0.5-2.9,0.62-5.61,3.38-8.11c1.29-0.9,2.58-1.46,3.84-1.67c-5.02-2.27-10.09-3.1-15.21-2.49
				c-0.86,0.08-1.71,0.16-2.57,0.24c-5.35,0.93-9.94,2.9-13.76,5.9c-3.81,3-6.85,6.1-9.08,9.29c-2.24,3.2-3.6,5.8-4.11,7.79
				c3.73,20.27,7.47,40.54,11.2,60.8c0.61,3.29,1.67,5.78,3.18,7.48c1.51,1.69,3.52,3.2,6.02,4.51
				C812.29,3880.58,802.86,3882.34,793.44,3884.14z M949.5,3919.73c2.04-2.05,3.46-4.11,4.28-6.18c0.81-2.07,0.98-4.77,0.52-8.08
				c-4.49-31.94-8.98-63.88-13.47-95.81c-0.43-3.05,0.24-5.91,2-8.59c3.3-4.99,6.61-9.97,9.94-14.95
				c2.38,16.96,4.75,33.93,7.13,50.89c4.64,5.17,9.86,8.76,15.66,10.77c5.8,2,11.44,2.66,16.95,1.97c0.76-0.1,1.51-0.19,2.27-0.29
				c9.93-2.19,17.36-7.73,22.35-16.67c4.98-8.94,6.81-19.51,5.41-31.75c-1.42-12.36-5.79-22.34-13.18-29.89
				c-7.4-7.55-15.99-11.14-25.72-10.73c-0.42,0.05-0.85,0.11-1.27,0.16c-4.81,0.6-9.25,1.98-13.28,4.12
				c-5.1,2.82-9.21,6.24-12.33,10.23c-3.12,4-5.75,7.63-7.88,10.89c-3.12,4.89-6.23,9.78-9.32,14.67
				c-5.08,8.55-9.38,15.66-12.96,21.32c-2.1,3.15-4.25,6.37-6.45,9.67c0.27,1.85,0.55,3.71,0.82,5.56
				c1.14,6.73,2.1,11.32,2.88,13.78c0.71,1.92,1.79,3.32,3.25,4.19c1.46,0.87,3.02,1.18,4.67,0.94c-3.39,3.74-6.85,5.87-10.42,6.41
				c-2.61,0.39-5.18-0.17-7.73-1.68c-2.55-1.51-4.45-5.01-5.71-10.5c-1.72,2.56-3.06,4.4-4.02,5.49c-2.47,3.09-5.58,5.81-9.28,8.15
				c-3.71,2.35-8.3,3.96-13.78,4.85c-2.06,0.33-4.2,0.55-6.44,0.65c-8.28,0.14-15.26-1.63-20.98-5.33c-5.72-3.7-9.1-8.45-10.1-14.25
				c-0.23-1.32-0.32-2.66-0.27-4.03c1.07-9.42,5.51-16.4,13.32-20.91c7.82-4.5,15.43-8.22,22.82-11.17
				c3.22-1.33,7.43-3.18,12.64-5.55c5.21-2.37,8.04-4.86,8.5-7.51c-0.15-0.99-0.3-1.98-0.46-2.98c-0.46-3.04-1.41-6.41-2.84-10.12
				c-1.43-3.71-3.88-6.75-7.35-9.12c-3.48-2.37-8.29-3.35-14.44-2.91c-0.63,0.1-1.27,0.2-1.9,0.3c-1.98,0.32-4.34,0.9-7.1,1.75
				c2.86-1.96,5.75-3.37,8.65-4.24c1.47-0.3,2.94-0.6,4.42-0.91c7.2-1.14,13.14-0.66,17.78,1.4c4.65,2.07,8.28,4.91,10.91,8.5
				c2.62,3.6,4.51,7.35,5.66,11.23c1.15,3.89,1.92,7.16,2.31,9.8c0.64,4.3,1.27,8.6,1.91,12.91c0.67,4.5-0.31,8.97-2.9,13.42
				c-2.78,4.14-5.55,8.28-8.31,12.42c-1.89-12.37-3.78-24.74-5.67-37.11c-3.65,3.27-8.76,6.26-15.33,8.99
				c-6.57,2.73-12.57,6.28-17.99,10.63c-5.42,4.35-8.17,10.48-8.27,18.37c0.07,0.8,0.13,1.61,0.19,2.41
				c0.4,2.38,1.34,5.24,2.82,8.58c1.48,3.35,3.82,6.14,7.02,8.4c3.2,2.25,7.44,3.21,12.73,2.9c0.69-0.11,1.37-0.22,2.06-0.33
				c8.37-1.35,15.15-6,20.4-13.99c4.9-7.52,8.7-13.31,11.35-17.36c4.53-6.63,12.12-18.92,23.03-36.81
				c-0.62-4.44-1.25-8.88-1.87-13.32c-0.48-3.44-1.43-6.05-2.82-7.81c-1.4-1.76-3.41-3.27-6.04-4.52c0.92-0.13,1.84-0.26,2.75-0.39
				c4.23-0.6,7.73-1.6,10.49-2.99c2.76-1.4,5.49-3.29,8.19-5.68c0.69,5.11,1.39,10.21,2.08,15.32c4.65-5.9,9.23-10.42,13.71-13.57
				c4.48-3.15,10.05-5.15,16.71-5.99c0.35-0.04,0.71-0.09,1.06-0.13c14.41-1,26.98,2.45,37.6,10.26
				c10.62,7.82,16.58,18.28,18.01,31.32c1.43,13.04-2.21,24.7-10.76,35.04c-8.56,10.34-19.52,16.31-32.99,18
				c-14.03,1.76-25.51-1.7-34.58-10.47c2.8,20.62,5.6,41.24,8.4,61.86c0.43,3.18,1.35,5.66,2.76,7.42c1.4,1.77,3.3,3.37,5.69,4.81
				C968.09,3917.11,958.8,3918.4,949.5,3919.73z"/>
			<path class="st4" d="M1130.69,3838.03c2.21-1.79,3.8-3.7,4.75-5.72c0.95-2.02,1.3-4.7,1.03-8.04
				c-0.91-11.41-1.81-22.81-2.72-34.22c-0.66-8.27-1.85-15.69-3.58-22.27c-1.73-6.57-4.7-11.64-8.92-15.19
				c-4.22-3.54-10.4-5.18-18.53-4.87c-0.5,0.04-0.99,0.09-1.49,0.13c-5.68,0.5-11.32,2.29-16.89,5.37
				c-5.58,3.08-10.13,7.76-13.64,14.02c2.05,20.78,4.09,41.55,6.14,62.33c0.33,3.33,1.18,5.9,2.54,7.72
				c1.36,1.81,3.23,3.42,5.58,4.8c-9.51,0.92-19.02,1.88-28.53,2.88c2.17-1.84,3.75-3.79,4.72-5.84c0.97-2.05,1.29-4.74,0.95-8.07
				c-4.25-41.2-8.5-82.4-12.76-123.6c-0.34-3.33-1.23-5.89-2.65-7.7c-1.43-1.8-3.45-3.38-6.07-4.71
				c10.12-2.28,17.53-4.76,22.23-7.51c2.47,25.04,4.93,50.08,7.4,75.11c6.73-9.94,17.49-15.95,32.21-17.92
				c0.43-0.04,0.85-0.07,1.28-0.11c11.37-1,20.23,0.47,26.53,4.33c6.31,3.86,10.82,9.32,13.55,16.36c2.73,7.04,4.42,14.9,5.06,23.57
				c0.85,11.34,1.7,22.69,2.54,34.03c0.25,3.33,1.04,5.96,2.36,7.88c1.32,1.91,3.15,3.59,5.48,5.03
				C1149.74,3836.51,1140.21,3837.25,1130.69,3838.03z"/>
			<path class="st4" d="M1171.69,3834.94c2.24-1.76,3.84-3.68,4.82-5.76c0.97-2.08,1.35-4.72,1.14-7.92
				c-1.4-21.1-2.8-42.2-4.21-63.29c-0.22-3.34-0.96-5.94-2.23-7.8c-1.27-1.86-3.17-3.58-5.7-5.15c9.86-1.88,17.22-4.02,22.07-6.47
				c1.68,27.25,3.36,54.5,5.04,81.75c0.21,3.34,0.92,5.94,2.15,7.81c1.22,1.87,3.06,3.53,5.51,5
				C1190.76,3833.68,1181.22,3834.29,1171.69,3834.94z M1177.4,3726.73c-2.57,0.17-4.77-0.52-6.59-2.08
				c-1.83-1.55-2.82-3.46-2.97-5.74c-0.16-2.4,0.56-4.46,2.18-6.18c1.62-1.72,3.72-2.66,6.3-2.83c2.44-0.16,4.61,0.51,6.5,2
				c1.89,1.49,2.91,3.44,3.06,5.84c0.14,2.27-0.63,4.3-2.31,6.08C1181.87,3725.61,1179.82,3726.57,1177.4,3726.73z"/>
			<path class="st4" d="M1261.87,3830.05c-13.55,0.54-25.32-3.56-35.45-12.35c-10.12-8.79-15.61-19.7-16.34-32.8
				c-0.73-13.09,3.53-24.6,12.91-34.46c9.38-9.86,21.1-15.1,35.07-15.66c7.97-0.32,15.09,1.03,21.32,4.04
				c2.75,1.25,5.8,3.09,9.14,5.53c3.34,2.44,5.06,5.54,5.18,9.28c0,0.07,0,0.13,0.01,0.2c0.07,2.28-0.73,4.27-2.37,5.99
				c-1.64,1.73-3.74,2.62-6.28,2.7c-2.4,0.08-4.51-0.69-6.33-2.3c-1.83-1.61-2.77-3.55-2.85-5.83c-0.08-2.27,0.73-4.28,2.45-6.01
				c1.72-1.73,3.78-2.64,6.2-2.71c0.35-0.01,0.71-0.02,1.06-0.03c-8.14-5.63-16.51-8.29-25.05-7.95c-0.78,0.03-1.56,0.06-2.35,0.09
				c-10.35,1.35-18.37,6.31-24,14.81c-5.63,8.51-8.1,18.99-7.47,31.42c0.62,12.3,4.33,22.53,11.05,30.71
				c6.72,8.19,14.71,12.48,24.01,12.92c0.69-0.03,1.38-0.06,2.08-0.08c5.26-0.21,10.5-1.74,15.74-4.6
				c5.24-2.86,9.67-6.75,13.28-11.67c0.65,0.72,1.3,1.43,1.94,2.15c-4.58,5.09-8.87,8.81-12.88,11.15
				c-4.02,2.34-7.73,3.81-11.17,4.41C1267.33,3829.6,1264.36,3829.95,1261.87,3830.05z"/>
			<path class="st4" d="M1452.68,3812.91c-5.11,4.98-10.09,8.71-14.98,11.18c-4.89,2.47-10.93,3.66-18.12,3.58
				c-13.56-0.13-25.11-4.81-34.78-14.1c-9.67-9.29-14.6-20.46-14.68-33.58c-0.08-13.11,4.74-24.39,14.6-33.77
				c9.85-9.38,21.82-14.03,35.79-13.9c7.27,0.07,13.74,1.5,19.39,4.26c5.65,2.77,10.35,6.47,14.09,11.1
				c0.51-25.15,1.02-50.31,1.53-75.46c5.03,2.38,12.61,4.28,22.72,5.76c-2.36,1.54-4.18,3.27-5.46,5.18
				c-1.28,1.91-1.96,4.54-2.04,7.88c-0.98,39.4-1.97,78.8-2.95,118.2c-0.08,3.34,0.44,6,1.57,7.97c1.13,1.97,2.78,3.79,4.96,5.45
				c-0.9-0.02-1.8-0.05-2.7-0.07c-4.16-0.11-7.67,0.31-10.53,1.25c-2.86,0.94-5.77,2.38-8.72,4.33
				C1452.47,3823.08,1452.57,3818,1452.68,3812.91z M1421.69,3824.88c5.68,0.06,11.26-1.34,16.79-4.2
				c5.52-2.86,10.29-7.12,14.3-12.79c0.37-18.4,0.74-36.79,1.12-55.19c-3.71-5.83-8.39-10.17-14.03-13
				c-5.64-2.83-11.33-4.28-17.02-4.34c-0.78-0.01-1.57-0.02-2.35-0.02c-10.41,0.84-18.69,5.38-24.81,13.6
				c-6.12,8.22-9.14,18.56-9.13,31.01c0.01,12.31,3.24,22.65,9.61,31.02c6.38,8.38,14.17,13,23.44,13.9
				C1420.3,3824.87,1420.99,3824.88,1421.69,3824.88z"/>
			<path class="st4" d="M1535.76,3830.95c-13.55-0.63-24.92-5.73-34.25-15.37c-9.32-9.64-13.84-20.98-13.44-34.09
				c0.41-13.1,5.64-24.2,15.83-33.21c10.19-9.01,22.33-13.22,36.29-12.57c0.07,0,0.14,0.01,0.21,0.01
				c12.1,0.57,21.85,4.94,29.15,13.05c7.3,8.12,10.63,17,10.05,26.62c-0.01,0.13-0.02,0.27-0.02,0.4
				c-24.62-1.46-49.25-2.65-73.89-3.54c-0.68,3.19-1.08,6.39-1.19,9.6c-0.45,12.44,2.4,22.92,8.47,31.46
				c6.07,8.54,13.69,13.34,22.93,14.45c0.48,0.02,0.97,0.05,1.45,0.07c6.65,0.31,12.56-0.96,17.79-3.84
				c5.22-2.87,9.82-6.78,13.8-11.71c3.97-4.93,7.48-10.46,10.52-16.58c5.6-11.46,11.5-21.82,17.7-31.08
				c6.2-9.25,14.59-15.87,25.15-19.81c7.17-2.43,14.47-3.36,21.87-2.78c1.91,0.28,3.82,0.57,5.73,0.86
				c9.99,2.15,18.46,6.84,25.39,14.03c0.54,0.32,1.54,1.52,3,3.59c1.45,2.08,2.04,4.59,1.78,7.52c-0.01,0.13-0.02,0.27-0.04,0.4
				c-0.35,2.25-1.43,4.07-3.26,5.45c-1.83,1.38-3.94,1.97-6.33,1.76c-0.49-0.11-0.97-0.22-1.46-0.33c-4.27-1.45-6.52-4.25-6.73-8.44
				c0.01-0.13,0.02-0.27,0.03-0.4c0.2-2.27,1.21-4.16,3.05-5.68c1.84-1.52,3.96-2.18,6.37-1.97c0.21,0.02,0.42,0.04,0.64,0.06
				c0.56,0.12,1.12,0.23,1.68,0.35c-8.48-8.94-18.46-13.88-29.82-14.78c-8.67-0.68-17,0.78-24.96,4.37
				c-10.09,5.46-17.99,13.18-23.72,23.14c-5.73,9.96-10.27,18.53-13.65,25.7c-3.46,6.23-7.23,11.9-11.28,17.03
				c-4.06,5.13-8.87,9.21-14.45,12.27C1550.57,3830,1543.78,3831.33,1535.76,3830.95z M1568.33,3772.93
				c-0.33-6.72-1.19-12.23-2.59-16.53s-3.96-8.22-7.69-11.77c-3.73-3.54-9.17-5.5-16.28-5.83c-0.57-0.03-1.14-0.05-1.71-0.08
				c-8.57,0.27-15.83,3.21-21.73,8.8c-5.91,5.59-9.94,13.11-12.12,22.54C1526.92,3770.81,1547.63,3771.77,1568.33,3772.93z
				 M1636.27,3837.25c-10.07-0.79-19.01-3.79-26.85-9.04c-3.58-2.53-6.68-5.53-9.31-8.99c-2.63-3.46-3.83-6.99-3.59-10.6
				c0.15-2.27,1.12-4.18,2.9-5.74c1.79-1.56,3.86-2.26,6.24-2.1c0.21,0.01,0.42,0.03,0.63,0.04c4.71,0.86,7.32,3.66,7.82,8.39
				c-0.01,0.13-0.02,0.27-0.03,0.4c-0.17,2.4-1.15,4.38-2.93,5.93c-1.79,1.55-3.93,2.24-6.42,2.07c-0.76-0.12-1.52-0.24-2.28-0.36
				c3.05,4.5,6.88,7.98,11.5,10.46c4.62,2.47,9.09,4.18,13.39,5.11c4.31,0.93,7.29,1.47,8.95,1.6c4.15,0.33,8.75,0.09,13.83-0.7
				c5.08-0.79,9.57-2.49,13.5-5.1c3.92-2.61,6.12-6.51,6.58-11.71c0.04-0.47,0.08-0.93,0.12-1.4c-0.58-6.1-5.08-10.77-13.53-13.96
				c-8.45-3.19-17.61-6.51-27.49-9.94c-9.88-3.43-17.2-8.63-21.94-15.66c0-0.07,0.01-0.13,0.01-0.2c-1.28-1.96-1.81-4.55-1.6-7.75
				c0.09-1.33,0.39-2.59,0.89-3.76c1.48-2.98,4.39-6.21,8.77-9.66c-0.13,0.86-0.26,1.73-0.4,2.59c-0.32,4.54,0.44,7.88,2.28,10.02
				c4.6,5.16,11.88,9.14,21.84,11.99c9.96,2.86,19.21,6.48,27.72,10.85c8.52,4.37,12.95,11.37,13.33,20.94
				c-0.05,0.6-0.11,1.2-0.17,1.8c-0.73,8-5.48,14.27-14.18,18.88C1657.15,3836.26,1647.31,3838.11,1636.27,3837.25z"/>
			<path class="st4" d="M1689.87,3841.92c2.5-1.37,4.39-3.01,5.7-4.9c1.3-1.89,2.11-4.43,2.42-7.63
				c2.06-21.04,4.12-42.09,6.18-63.13c0.32-3.33,0.02-6.01-0.93-8.06c-0.95-2.04-2.54-4.04-4.78-6.01
				c10.04-0.25,17.65-1.16,22.84-2.78c-2.79,27.16-5.58,54.32-8.37,81.47c-0.34,3.33-0.06,6.01,0.85,8.06
				c0.91,2.04,2.44,3.99,4.62,5.83C1708.89,3843.78,1699.38,3842.83,1689.87,3841.92z M1713.16,3736.08
				c-2.57-0.26-4.62-1.3-6.17-3.13c-1.55-1.83-2.22-3.88-2-6.14c0.23-2.4,1.29-4.31,3.16-5.74c1.88-1.43,4.1-2.02,6.68-1.76
				c2.43,0.24,4.46,1.25,6.1,3.03c1.63,1.78,2.31,3.87,2.07,6.26c-0.23,2.27-1.33,4.14-3.28,5.62
				C1717.77,3735.71,1715.59,3736.32,1713.16,3736.08z"/>
			<path class="st4" d="M1772.98,3933.92c-1.41-0.18-2.81-0.35-4.22-0.53c-8.85-1.1-17.27-3.36-25.31-6.78
				c-8.04-3.43-14.45-8.18-19.24-14.28c-4.79-6.11-6.73-13.68-5.77-22.73c0.08-0.8,0.17-1.6,0.25-2.4
				c1.47-7.38,4.11-12.78,7.94-16.21c3.83-3.42,9.29-5.89,16.4-7.37c-4.84,7.13-7.83,13.6-9.02,19.39c-0.07,0.67-0.15,1.33-0.22,2
				c-0.58,5.19-0.23,10.44,1.02,15.77c1.25,5.32,3.92,10.17,7.99,14.55c4.07,4.37,9.9,7.82,17.5,10.36
				c5.13,1.56,9.96,2.64,14.53,3.21c8.72,1.1,16.22,0.6,22.52-1.53c6.3-2.13,11.27-5.16,14.9-9.12c3.64-3.96,5.89-8.1,6.78-12.44
				c0.2-0.92,0.39-1.84,0.59-2.75c1.19-8.48-1.34-15.19-7.61-20.1c-6.27-4.9-16.72-8.88-31.36-11.8
				c-12.7-2.81-22.55-5.76-29.55-8.93c-7-3.17-11.78-6.39-14.33-9.71c-2.55-3.31-3.66-6.56-3.31-9.76c0.35-3.19,1.65-6.18,3.92-8.96
				c2.26-2.78,4.67-5.14,7.2-7.07c2.53-1.94,4.48-3.3,5.84-4.09c-9.78-9.2-14.07-19.75-12.77-31.72
				c1.19-10.91,6.8-19.69,16.93-26.29c10.12-6.59,21.75-9.11,34.8-7.49c0.92,0.11,1.84,0.23,2.76,0.34
				c4.81,0.6,10.53,0.08,17.16-1.56c6.63-1.63,12.15-5.45,16.59-11.47c-1.37,0.49-2.83,0.63-4.4,0.42
				c-2.42-0.32-4.41-1.43-5.97-3.32c-1.56-1.89-2.2-3.96-1.9-6.22c0.62-4.78,3.99-7.18,10.1-7.17c2.58,0.34,4.62,1.43,6.11,3.25
				c1.5,1.82,2.09,3.93,1.76,6.32c-0.03,0.2-0.05,0.4-0.08,0.6c-0.33,2.39-1.17,4.57-2.52,6.55c-1.36,1.98-2.85,3.66-4.48,5.07
				c-6.58,5.87-14.43,9.15-23.58,9.86c10.34,3.62,18.35,9.38,24.03,17.24c5.68,7.86,7.85,16.38,6.57,25.52
				c-1.51,10.87-7.37,19.51-17.48,25.97c-10.12,6.47-21.55,8.89-34.41,7.29c-10.51-1.3-19.52-5.13-27.07-11.52
				c-6.1,4.15-9.32,7.9-9.69,11.22c-0.34,3.06,1.17,5.79,4.53,8.19c8.59,5.56,18.92,9.5,31.04,11.89
				c12.12,2.38,22.64,5.75,31.55,10.06c7.26,4.09,12.1,8.85,14.54,14.26c2.44,5.41,3.25,10.96,2.44,16.66
				c-0.55,3.84-1.72,7.73-3.51,11.67c-4.5,9.37-11.48,16.19-20.95,20.51C1793.02,3933.08,1783.2,3934.8,1772.98,3933.92z
				 M1780.1,3833.66c8.16,1.01,15.63-1.7,22.48-8.16c6.84-6.46,10.98-14.85,12.37-25.19c1.37-10.21-0.45-19.33-5.49-27.35
				c-5.05-8.01-11.78-12.56-20.13-13.59c-8.5-1.05-16.16,1.7-22.95,8.25c-6.78,6.55-10.73,14.96-11.9,25.2
				c-1.19,10.37,0.74,19.51,5.73,27.44C1765.19,3828.16,1771.8,3832.63,1780.1,3833.66z"/>
			<path class="st4" d="M1911.1,3870.99c2.59-1.19,4.6-2.66,6.02-4.38c1.42-1.73,2.41-4.24,2.97-7.54
				c1.91-11.28,3.83-22.56,5.74-33.84c1.39-8.18,2.09-15.66,2.08-22.45c-0.01-6.79-1.65-12.43-4.95-16.91
				c-3.3-4.48-8.87-7.58-16.71-9.25c-0.49-0.08-0.99-0.16-1.48-0.24c-5.78-0.93-11.77-0.58-17.94,1.03
				c-6.17,1.62-11.67,5.05-16.48,10.28c-3.11,20.64-6.21,41.29-9.32,61.93c-0.5,3.31-0.31,6.01,0.57,8.11
				c0.88,2.09,2.29,4.1,4.25,6.03c-9.47-1.44-18.94-2.85-28.41-4.2c2.56-1.26,4.53-2.76,5.91-4.52c1.38-1.76,2.31-4.3,2.79-7.61
				c3.05-20.92,6.09-41.85,9.14-62.77c0.48-3.31,0.3-6.01-0.55-8.09c-0.85-2.08-2.35-4.16-4.5-6.23c10.03,0.36,17.69-0.19,22.98-1.7
				c-0.73,4.83-1.45,9.66-2.18,14.49c8.99-8.12,20.9-11.25,35.65-9.28c0.63,0.1,1.27,0.2,1.91,0.31
				c10.87,1.76,18.87,5.31,23.98,10.59c5.11,5.28,8.13,11.68,9.06,19.17c0.93,7.5,0.65,15.46-0.82,23.9
				c-1.97,11.27-3.94,22.54-5.9,33.82c-0.58,3.29-0.45,6,0.38,8.12c0.82,2.11,2.2,4.16,4.11,6.12
				C1929.98,3874.2,1920.54,3872.58,1911.1,3870.99z"/>
			<path class="st4" d="M2000.47,3887.29c-13.36-2.63-23.95-9.37-31.85-20.3c-7.9-10.93-10.76-22.82-8.43-35.73
				c2.33-12.9,9.19-23.06,20.7-30.39c11.5-7.32,24.2-9.65,37.98-6.93c0.07,0.01,0.14,0.03,0.21,0.04
				c12.08,2.38,21.15,8.16,27.14,17.26c6,9.1,7.94,18.44,5.92,28c-24.34-5.06-48.72-9.83-73.13-14.31
				c-0.96,2.82-1.76,5.94-2.39,9.35c-2.25,12.11-0.95,22.76,3.85,31.97c4.79,9.21,11.65,15.16,20.61,17.89
				c0.94,0.25,1.88,0.51,2.83,0.76c6.96,1.38,13.29,0.75,19.03-1.91c5.74-2.65,11.19-6.45,16.37-11.38
				c5.18-4.93,10.39-10.44,15.65-16.5c5.25-6.07,10.87-11.87,16.87-17.42c0.96-4.45,1.93-8.89,2.89-13.34
				c0.71-3.27,0.68-5.98-0.1-8.13c-0.78-2.15-2.17-4.33-4.19-6.55c10.16,1.08,17.86,1.07,23.11-0.1c-1.01,4.57-2.03,9.15-3.04,13.72
				c1.6-1.29,4.11-2.69,7.52-4.19c3.41-1.5,7.41-2.62,11.99-3.37c4.58-0.74,9.32-0.55,14.21,0.58c0.84,0.19,1.68,0.39,2.51,0.58
				c6,2.08,10.53,4.73,13.6,7.94c3.07,3.2,4.8,6.1,5.22,8.67c0.39,1.47,0.4,2.92,0.06,4.35c-0.69,2.86-2.71,4.86-6.05,5.98
				c-1.54,0.32-3.01,0.32-4.39-0.01c-3.05-0.72-5.29-2.69-6.73-5.92c-0.53-1.5-0.64-2.9-0.33-4.2c0.67-2.86,2.77-4.92,6.29-6.15
				c1.58-0.45,3.06-0.52,4.46-0.18c-3.88-4.08-8.34-6.78-13.33-8.08c-0.89-0.28-1.78-0.55-2.68-0.83
				c-3.63-0.84-7.12-1.02-10.46-0.55c-3.34,0.47-6.44,1.21-9.31,2.21c-4.91,1.64-9.89,4.23-14.9,7.78
				c-5.02,3.55-9.67,7.36-13.97,11.42c-4.3,4.07-7.85,7.61-10.66,10.63c-2.82,3.02-4.5,4.82-5.05,5.38
				c-5.37,6.24-10.81,12.1-16.33,17.58c-5.51,5.47-11.59,9.68-18.24,12.62C2017.28,3888.49,2009.47,3889.06,2000.47,3887.29z
				 M2041.37,3834.72c0.66-6.7,0.58-12.28-0.24-16.75c-0.83-4.47-2.82-8.74-6.01-12.8c-3.19-4.06-8.29-6.8-15.31-8.19
				c-0.49-0.1-0.98-0.19-1.47-0.29c-8.7-1.03-16.41,0.79-23.1,5.44c-6.69,4.65-11.8,11.49-15.36,20.5
				C2000.41,3826.46,2020.91,3830.49,2041.37,3834.72z M2051.56,3897.79c2.65-1.07,4.72-2.44,6.22-4.1c1.5-1.66,2.67-4.11,3.52-7.35
				c2.21-10.2,4.42-20.4,6.63-30.61c0.9-4.18,3.07-7.82,6.5-10.91c4.67-4.12,9.35-8.23,14.05-12.33
				c-4.21,19.01-8.42,38.02-12.64,57.03c-0.59,3.29-0.55,6.01,0.12,8.15c0.67,2.13,1.92,4.23,3.74,6.28
				C2070.32,3901.86,2060.94,3899.81,2051.56,3897.79z"/>
		</g>
	</g>
</g>
<g class="st0">
	<g class="st1">
		<path class="st2" d="M1133.13,5324.86c1.47-1.04,2.55-2.18,3.24-3.44c0.69-1.25,1.04-2.96,1.04-5.12v-87.36h-29.55
			c-4.92,0.17-8.99,4.06-12.18,11.67l2.59-13.09h87.62l2.59,13.09c-3.2-7.6-7.26-11.49-12.18-11.67h-29.55v87.36
			c0.08,2.16,0.47,3.87,1.17,5.12c0.69,1.25,1.73,2.4,3.11,3.44H1133.13z"/>
		<path class="st2" d="M1242.79,5324.86c1.47-1.04,2.55-2.18,3.24-3.44c0.69-1.25,1.04-2.96,1.04-5.12v-22.17
			c0-5.36-0.37-10.19-1.1-14.52c-0.74-4.32-2.29-7.73-4.67-10.24c-2.38-2.5-6.03-3.89-10.95-4.15h-0.91c-3.46,0-6.96,0.82-10.5,2.46
			c-3.54,1.64-6.57,4.36-9.07,8.17v40.44c0,2.16,0.37,3.87,1.1,5.12c0.73,1.25,1.79,2.4,3.18,3.44h-17.89
			c1.47-1.04,2.57-2.18,3.3-3.44c0.73-1.25,1.1-2.96,1.1-5.12v-80.23c0-2.16-0.37-3.87-1.1-5.12c-0.73-1.25-1.84-2.4-3.3-3.43
			c6.13-0.78,10.67-1.9,13.61-3.37v48.74c4.67-5.96,11.49-9.16,20.48-9.59h0.78c6.91,0,12.18,1.41,15.81,4.21
			c3.63,2.81,6.11,6.55,7.45,11.21c1.34,4.67,2.01,9.81,2.01,15.42v22.04c0,2.16,0.37,3.89,1.1,5.18c0.73,1.3,1.79,2.46,3.18,3.5
			H1242.79z"/>
		<path class="st2" d="M1299.17,5324.86c-8.47,0-15.71-3-21.71-9.01c-6.01-6-9.01-13.24-9.01-21.71c0-8.55,3-15.83,9.01-21.84
			c6-6,13.24-9.01,21.71-9.01c8.55,0,15.83,3,21.84,9.01c6,6.01,9.01,13.29,9.01,21.84c0,8.47-3,15.71-9.01,21.71
			C1315,5321.85,1307.72,5324.86,1299.17,5324.86z M1299.17,5323.17c5.7,0,10.56-2.85,14.58-8.55s6.03-12.53,6.03-20.48
			c0-8.04-2.01-14.91-6.03-20.61s-8.88-8.55-14.58-8.55c-5.62,0-10.43,2.85-14.45,8.55c-4.02,5.7-6.03,12.57-6.03,20.61
			c0,7.95,2.01,14.78,6.03,20.48C1288.73,5320.32,1293.55,5323.17,1299.17,5323.17z"/>
		<path class="st2" d="M1390.16,5324.86h-13.61c1.47-1.04,2.55-2.18,3.24-3.44c0.69-1.25,1.04-2.96,1.04-5.12v-80.23
			c0-2.16-0.35-3.87-1.04-5.12c-0.69-1.25-1.77-2.4-3.24-3.43h46.53c10.28,0.17,18.17,2.85,23.66,8.04
			c5.49,5.18,8.23,11.54,8.23,19.05c0,5.18-1.08,9.44-3.24,12.77c-2.16,3.33-4.82,5.92-7.97,7.78c-3.16,1.86-6.31,3.2-9.46,4.02
			c-3.16,0.82-6.89,1.36-11.21,1.62h-32.92V5324.86z M1414.27,5279.36c9.94,0,17.5-2.38,22.68-7.13c5.18-4.75,7.78-10.63,7.78-17.63
			c0-7.08-2.57-13.13-7.71-18.15c-5.14-5.01-12.08-7.52-20.8-7.52h-26.05v50.42H1414.27z"/>
		<path class="st2" d="M1509.27,5324.86c1.47-1.04,2.55-2.18,3.24-3.44c0.69-1.25,1.04-2.96,1.04-5.12v-22.17
			c0-5.36-0.37-10.19-1.1-14.52c-0.74-4.32-2.29-7.73-4.67-10.24c-2.38-2.5-6.03-3.89-10.95-4.15h-0.91c-3.46,0-6.96,0.82-10.5,2.46
			c-3.54,1.64-6.57,4.36-9.07,8.17v40.44c0,2.16,0.37,3.87,1.1,5.12c0.73,1.25,1.79,2.4,3.18,3.44h-17.89
			c1.47-1.04,2.57-2.18,3.3-3.44c0.73-1.25,1.1-2.96,1.1-5.12v-80.23c0-2.16-0.37-3.87-1.1-5.12c-0.73-1.25-1.84-2.4-3.3-3.43
			c6.13-0.78,10.67-1.9,13.61-3.37v48.74c4.67-5.96,11.49-9.16,20.48-9.59h0.78c6.91,0,12.18,1.41,15.81,4.21
			c3.63,2.81,6.11,6.55,7.45,11.21c1.34,4.67,2.01,9.81,2.01,15.42v22.04c0,2.16,0.37,3.89,1.1,5.18c0.73,1.3,1.79,2.46,3.18,3.5
			H1509.27z"/>
		<path class="st2" d="M1677.13,5324.99c1.47-1.04,2.55-2.2,3.24-3.5c0.69-1.3,1.04-3.03,1.04-5.18v-22.04
			c0-5.1-0.35-9.85-1.04-14.26c-0.69-4.41-2.1-7.95-4.21-10.63c-2.12-2.68-5.29-4.02-9.53-4.02l-1.81,0.13
			c-4.06,0.52-7.52,2.12-10.37,4.8c-2.85,2.68-4.88,5.75-6.09,9.2c0.43,3.72,0.69,7.04,0.78,9.98v26.96c0,2.16,0.37,3.87,1.1,5.12
			c0.73,1.25,1.79,2.4,3.18,3.43h-17.89c1.47-1.04,2.57-2.18,3.31-3.43c0.73-1.25,1.1-2.96,1.1-5.12v-23.46
			c0-7.17-0.93-13.33-2.79-18.47c-1.86-5.14-5.25-8.14-10.17-9.01l-1.81-0.13c-2.25,0-4.39,0.5-6.42,1.49
			c-2.03,1-3.82,2.1-5.38,3.31c-6.05,5.01-11.32,10.54-15.81,16.59l-14,18.41v3.63c0.08,4.41,0.26,7.43,0.52,9.07
			c0.26,1.3,0.8,2.29,1.62,2.98c0.82,0.69,1.75,1.04,2.79,1.04c-2.42,2.07-4.75,3.11-7,3.11c-1.64,0-3.18-0.61-4.6-1.81
			c-1.43-1.21-2.27-3.63-2.53-7.26c-1.3,1.47-2.29,2.5-2.98,3.11c-1.81,1.73-3.98,3.15-6.48,4.28c-2.51,1.12-5.49,1.68-8.94,1.68
			c-1.3,0-2.64-0.09-4.02-0.26c-5.18-0.78-9.31-2.66-12.38-5.64c-3.07-2.98-4.6-6.33-4.6-10.04c0-0.95,0.08-1.86,0.26-2.72
			c1.73-5.88,5.14-9.83,10.24-11.86c5.1-2.03,10.02-3.61,14.78-4.73c2.07-0.52,4.82-1.27,8.23-2.27c3.41-0.99,5.33-2.31,5.77-3.95
			l0.13-2.07c0-1.99-0.28-4.21-0.84-6.67c-0.56-2.46-1.77-4.62-3.63-6.48c-1.86-1.86-4.65-2.96-8.36-3.3h-0.78
			c-1.73,0-3.89,0.3-6.48,0.91c-2.59,0.61-5.1,1.73-7.52,3.37c-2.42,1.64-4.36,3.93-5.83,6.87c0.78-0.43,1.64-0.65,2.59-0.65h0.52
			c2.85,0.43,4.45,2.07,4.8,4.92v0.65c0,1.47-0.52,2.72-1.56,3.76s-2.29,1.56-3.76,1.56h-0.39c-3.11-0.52-4.84-2.33-5.18-5.44
			c0-1.73,0.37-3.28,1.1-4.67c0.73-1.38,1.49-2.63,2.27-3.76c2.42-3.11,5.42-5.4,9.01-6.87c3.58-1.47,7.19-2.2,10.82-2.2h0.52
			c6.74,0.26,11.69,1.77,14.84,4.54c3.15,2.77,5.12,5.96,5.9,9.59c0.78,3.63,1.17,6.7,1.17,9.2v8.42c0,2.94-1.04,5.7-3.11,8.3
			c-2.94,3.54-4.97,5.92-6.09,7.13l-0.13-24.24c-2.42,1.73-5.75,3.13-9.98,4.21c-4.23,1.08-8.21,2.72-11.92,4.93
			c-3.72,2.2-6.01,5.81-6.87,10.82l-0.13,1.81c0,1.56,0.3,3.46,0.91,5.7c0.6,2.25,1.77,4.21,3.5,5.9c1.73,1.68,4.19,2.7,7.39,3.05
			l1.56,0.13c5.18,0,9.72-2.29,13.61-6.87c3.8-4.32,6.65-7.65,8.55-9.98l17.63-23.07v-7.52c0-2.25-0.37-4-1.1-5.25
			c-0.74-1.25-1.84-2.4-3.31-3.43c6.05-0.78,10.58-1.9,13.61-3.37v9.59c5.1-5.18,10.28-8.3,15.55-9.33c1.64-0.26,3.2-0.39,4.67-0.39
			c5.18,0,9.38,1.36,12.57,4.08c3.2,2.72,5.49,5.94,6.87,9.66c2.42-3.97,4.9-7,7.45-9.07c2.55-2.07,5.85-3.46,9.92-4.15
			c1.73-0.26,3.33-0.39,4.8-0.39c5.53,0,9.83,1.38,12.9,4.15c3.07,2.77,5.21,6.48,6.42,11.15c1.21,4.67,1.81,9.85,1.81,15.55v22.04
			c0,2.16,0.37,3.89,1.1,5.18c0.73,1.3,1.83,2.46,3.31,3.5H1677.13z M1594.17,5324.99c1.38-1.04,2.42-2.2,3.11-3.5
			c0.69-1.3,1.08-3.03,1.17-5.18l-0.13-24.5c0.09-1.99,0.78-3.76,2.07-5.31l7.39-8.55l-0.13,38.5c0.08,2.07,0.47,3.76,1.17,5.06
			c0.69,1.3,1.73,2.46,3.11,3.5H1594.17z"/>
	</g>
	<g class="st3">
		<g>
			<path class="st4" d="M1126.13,5324.86c1.47-1.04,2.55-2.18,3.24-3.44c0.69-1.25,1.04-2.96,1.04-5.12v-87.36h-29.55
				c-4.92,0.17-8.99,4.06-12.18,11.67l2.59-13.09h87.62l2.59,13.09c-3.2-7.6-7.26-11.49-12.18-11.67h-29.55v87.36
				c0.08,2.16,0.47,3.87,1.17,5.12c0.69,1.25,1.73,2.4,3.11,3.44H1126.13z"/>
			<path class="st4" d="M1235.79,5324.86c1.47-1.04,2.55-2.18,3.24-3.44c0.69-1.25,1.04-2.96,1.04-5.12v-22.17
				c0-5.36-0.37-10.19-1.1-14.52c-0.74-4.32-2.29-7.73-4.67-10.24c-2.38-2.5-6.03-3.89-10.95-4.15h-0.91
				c-3.46,0-6.96,0.82-10.5,2.46c-3.54,1.64-6.57,4.36-9.07,8.17v40.44c0,2.16,0.37,3.87,1.1,5.12c0.73,1.25,1.79,2.4,3.18,3.44
				h-17.89c1.47-1.04,2.57-2.18,3.3-3.44c0.73-1.25,1.1-2.96,1.1-5.12v-80.23c0-2.16-0.37-3.87-1.1-5.12
				c-0.73-1.25-1.84-2.4-3.3-3.43c6.13-0.78,10.67-1.9,13.61-3.37v48.74c4.67-5.96,11.49-9.16,20.48-9.59h0.78
				c6.91,0,12.18,1.41,15.81,4.21c3.63,2.81,6.11,6.55,7.45,11.21c1.34,4.67,2.01,9.81,2.01,15.42v22.04c0,2.16,0.37,3.89,1.1,5.18
				c0.73,1.3,1.79,2.46,3.18,3.5H1235.79z"/>
			<path class="st4" d="M1292.17,5324.86c-8.47,0-15.71-3-21.71-9.01c-6.01-6-9.01-13.24-9.01-21.71c0-8.55,3-15.83,9.01-21.84
				c6-6,13.24-9.01,21.71-9.01c8.55,0,15.83,3,21.84,9.01c6,6.01,9.01,13.29,9.01,21.84c0,8.47-3,15.71-9.01,21.71
				C1308,5321.85,1300.72,5324.86,1292.17,5324.86z M1292.17,5323.17c5.7,0,10.56-2.85,14.58-8.55s6.03-12.53,6.03-20.48
				c0-8.04-2.01-14.91-6.03-20.61s-8.88-8.55-14.58-8.55c-5.62,0-10.43,2.85-14.45,8.55c-4.02,5.7-6.03,12.57-6.03,20.61
				c0,7.95,2.01,14.78,6.03,20.48C1281.73,5320.32,1286.55,5323.17,1292.17,5323.17z"/>
			<path class="st4" d="M1383.16,5324.86h-13.61c1.47-1.04,2.55-2.18,3.24-3.44c0.69-1.25,1.04-2.96,1.04-5.12v-80.23
				c0-2.16-0.35-3.87-1.04-5.12c-0.69-1.25-1.77-2.4-3.24-3.43h46.53c10.28,0.17,18.17,2.85,23.66,8.04
				c5.49,5.18,8.23,11.54,8.23,19.05c0,5.18-1.08,9.44-3.24,12.77c-2.16,3.33-4.82,5.92-7.97,7.78c-3.16,1.86-6.31,3.2-9.46,4.02
				c-3.16,0.82-6.89,1.36-11.21,1.62h-32.92V5324.86z M1407.27,5279.36c9.94,0,17.5-2.38,22.68-7.13
				c5.18-4.75,7.78-10.63,7.78-17.63c0-7.08-2.57-13.13-7.71-18.15c-5.14-5.01-12.08-7.52-20.8-7.52h-26.05v50.42H1407.27z"/>
			<path class="st4" d="M1502.27,5324.86c1.47-1.04,2.55-2.18,3.24-3.44c0.69-1.25,1.04-2.96,1.04-5.12v-22.17
				c0-5.36-0.37-10.19-1.1-14.52c-0.74-4.32-2.29-7.73-4.67-10.24c-2.38-2.5-6.03-3.89-10.95-4.15h-0.91
				c-3.46,0-6.96,0.82-10.5,2.46c-3.54,1.64-6.57,4.36-9.07,8.17v40.44c0,2.16,0.37,3.87,1.1,5.12c0.73,1.25,1.79,2.4,3.18,3.44
				h-17.89c1.47-1.04,2.57-2.18,3.3-3.44c0.73-1.25,1.1-2.96,1.1-5.12v-80.23c0-2.16-0.37-3.87-1.1-5.12
				c-0.73-1.25-1.84-2.4-3.3-3.43c6.13-0.78,10.67-1.9,13.61-3.37v48.74c4.67-5.96,11.49-9.16,20.48-9.59h0.78
				c6.91,0,12.18,1.41,15.81,4.21c3.63,2.81,6.11,6.55,7.45,11.21c1.34,4.67,2.01,9.81,2.01,15.42v22.04c0,2.16,0.37,3.89,1.1,5.18
				c0.73,1.3,1.79,2.46,3.18,3.5H1502.27z"/>
			<path class="st4" d="M1670.13,5324.99c1.47-1.04,2.55-2.2,3.24-3.5c0.69-1.3,1.04-3.03,1.04-5.18v-22.04
				c0-5.1-0.35-9.85-1.04-14.26c-0.69-4.41-2.1-7.95-4.21-10.63c-2.12-2.68-5.29-4.02-9.53-4.02l-1.81,0.13
				c-4.06,0.52-7.52,2.12-10.37,4.8c-2.85,2.68-4.88,5.75-6.09,9.2c0.43,3.72,0.69,7.04,0.78,9.98v26.96c0,2.16,0.37,3.87,1.1,5.12
				c0.73,1.25,1.79,2.4,3.18,3.43h-17.89c1.47-1.04,2.57-2.18,3.31-3.43c0.73-1.25,1.1-2.96,1.1-5.12v-23.46
				c0-7.17-0.93-13.33-2.79-18.47c-1.86-5.14-5.25-8.14-10.17-9.01l-1.81-0.13c-2.25,0-4.39,0.5-6.42,1.49
				c-2.03,1-3.82,2.1-5.38,3.31c-6.05,5.01-11.32,10.54-15.81,16.59l-14,18.41v3.63c0.08,4.41,0.26,7.43,0.52,9.07
				c0.26,1.3,0.8,2.29,1.62,2.98c0.82,0.69,1.75,1.04,2.79,1.04c-2.42,2.07-4.75,3.11-7,3.11c-1.64,0-3.18-0.61-4.6-1.81
				c-1.43-1.21-2.27-3.63-2.53-7.26c-1.3,1.47-2.29,2.5-2.98,3.11c-1.81,1.73-3.98,3.15-6.48,4.28c-2.51,1.12-5.49,1.68-8.94,1.68
				c-1.3,0-2.64-0.09-4.02-0.26c-5.18-0.78-9.31-2.66-12.38-5.64c-3.07-2.98-4.6-6.33-4.6-10.04c0-0.95,0.08-1.86,0.26-2.72
				c1.73-5.88,5.14-9.83,10.24-11.86c5.1-2.03,10.02-3.61,14.78-4.73c2.07-0.52,4.82-1.27,8.23-2.27c3.41-0.99,5.33-2.31,5.77-3.95
				l0.13-2.07c0-1.99-0.28-4.21-0.84-6.67c-0.56-2.46-1.77-4.62-3.63-6.48c-1.86-1.86-4.65-2.96-8.36-3.3h-0.78
				c-1.73,0-3.89,0.3-6.48,0.91c-2.59,0.61-5.1,1.73-7.52,3.37c-2.42,1.64-4.36,3.93-5.83,6.87c0.78-0.43,1.64-0.65,2.59-0.65h0.52
				c2.85,0.43,4.45,2.07,4.8,4.92v0.65c0,1.47-0.52,2.72-1.56,3.76s-2.29,1.56-3.76,1.56h-0.39c-3.11-0.52-4.84-2.33-5.18-5.44
				c0-1.73,0.37-3.28,1.1-4.67c0.73-1.38,1.49-2.63,2.27-3.76c2.42-3.11,5.42-5.4,9.01-6.87c3.58-1.47,7.19-2.2,10.82-2.2h0.52
				c6.74,0.26,11.69,1.77,14.84,4.54c3.15,2.77,5.12,5.96,5.9,9.59c0.78,3.63,1.17,6.7,1.17,9.2v8.42c0,2.94-1.04,5.7-3.11,8.3
				c-2.94,3.54-4.97,5.92-6.09,7.13l-0.13-24.24c-2.42,1.73-5.75,3.13-9.98,4.21c-4.23,1.08-8.21,2.72-11.92,4.93
				c-3.72,2.2-6.01,5.81-6.87,10.82l-0.13,1.81c0,1.56,0.3,3.46,0.91,5.7c0.6,2.25,1.77,4.21,3.5,5.9c1.73,1.68,4.19,2.7,7.39,3.05
				l1.56,0.13c5.18,0,9.72-2.29,13.61-6.87c3.8-4.32,6.65-7.65,8.55-9.98l17.63-23.07v-7.52c0-2.25-0.37-4-1.1-5.25
				c-0.74-1.25-1.84-2.4-3.31-3.43c6.05-0.78,10.58-1.9,13.61-3.37v9.59c5.1-5.18,10.28-8.3,15.55-9.33
				c1.64-0.26,3.2-0.39,4.67-0.39c5.18,0,9.38,1.36,12.57,4.08c3.2,2.72,5.49,5.94,6.87,9.66c2.42-3.97,4.9-7,7.45-9.07
				c2.55-2.07,5.85-3.46,9.92-4.15c1.73-0.26,3.33-0.39,4.8-0.39c5.53,0,9.83,1.38,12.9,4.15c3.07,2.77,5.21,6.48,6.42,11.15
				c1.21,4.67,1.81,9.85,1.81,15.55v22.04c0,2.16,0.37,3.89,1.1,5.18c0.73,1.3,1.83,2.46,3.31,3.5H1670.13z M1587.17,5324.99
				c1.38-1.04,2.42-2.2,3.11-3.5c0.69-1.3,1.08-3.03,1.17-5.18l-0.13-24.5c0.09-1.99,0.78-3.76,2.07-5.31l7.39-8.55l-0.13,38.5
				c0.08,2.07,0.47,3.76,1.17,5.06c0.69,1.3,1.73,2.46,3.11,3.5H1587.17z"/>
		</g>
	</g>
</g>
<g>
	<g>
		<g>
			<path class="st5" d="M1144.11,3083.31c-44.66-22.81-83.71-56.14-113.29-97.85c-1.69-2.38-4.51-2.63-6.57-1.5
				c-2.3,0.54-2.63,2.87-3.89,5.51c-20.34,42.77-30.01,78.25-18.95,148.68c29.6-1.83,57.65-7.85,82.48-19.26
				C1105.36,3109.04,1125.45,3097.02,1144.11,3083.31z"/>
			<path class="st5" d="M1451.62,3083.31c44.66-22.81,83.71-56.14,113.29-97.85c1.69-2.38,4.51-2.63,6.57-1.5
				c2.3,0.54,2.63,2.87,3.89,5.51c20.34,42.77,30.01,78.25,18.95,148.68c-29.6-1.83-57.65-7.85-82.48-19.26
				C1490.38,3109.04,1470.28,3097.02,1451.62,3083.31z"/>
			<g>
				<path class="st5" d="M1227.09,3402.44c-3.65-10.31-8.42-19.63-14.09-27.86c-2.83-4.11-5.89-7.95-9.15-11.5
					c-1.3-1.42-2.64-2.79-4-4.12c-6.14-5.97-12.89-10.98-20.09-14.96c-1.6-0.88-3.22-1.72-4.87-2.5
					c-11.5-5.46-24.02-8.36-36.96-8.39c-20.34-0.05-41.73,6.99-61.91,22.34c-0.99,0.75-1.59,1.83-1.74,2.99
					c-0.05,0.39-0.05,0.78,0,1.18c5.16,36.2,27.23,72.53,60.89,78.27c0.93,0.16,1.87,0.3,2.82,0.41c0.33,0.04,0.66,0.08,1,0.11
					c1.27,0.12,2.55,0.21,3.84,0.25c0.81,0.02,1.63,0.03,2.46,0.02c9.08-0.12,18.87-2.4,29.28-7.33
					c7.71-3.67,14.49-7.88,21.32-11.85c1.95-1.14,3.91-2.25,5.89-3.33c0.99-0.54,1.99-1.07,3-1.59c1.56-0.8,3.15-1.56,4.76-2.3
					c0.91-0.42,1.84-0.82,2.78-1.21c3.85-1.61,7.91-3.02,12.33-4.1C1226.66,3406.5,1227.77,3404.39,1227.09,3402.44z"/>
				<path class="st5" d="M1365.4,3402.44c3.65-10.31,8.42-19.63,14.09-27.86c2.83-4.11,5.89-7.95,9.15-11.5
					c1.3-1.42,2.64-2.79,4-4.12c6.14-5.97,12.89-10.98,20.09-14.96c1.6-0.88,3.22-1.72,4.87-2.5c11.5-5.46,24.02-8.36,36.96-8.39
					c20.34-0.05,41.73,6.99,61.91,22.34c0.99,0.75,1.59,1.83,1.74,2.99c0.05,0.39,0.05,0.78,0,1.18
					c-5.16,36.2-27.23,72.53-60.89,78.27c-0.93,0.16-1.87,0.3-2.82,0.41c-0.33,0.04-0.66,0.08-1,0.11
					c-1.27,0.12-2.55,0.21-3.84,0.25c-0.81,0.02-1.63,0.03-2.46,0.02c-9.08-0.12-18.87-2.4-29.28-7.33
					c-7.71-3.67-14.49-7.88-21.32-11.85c-1.95-1.14-3.91-2.25-5.89-3.33c-0.99-0.54-1.99-1.07-3-1.59c-1.56-0.8-3.15-1.56-4.76-2.3
					c-0.91-0.42-1.84-0.82-2.78-1.21c-3.85-1.61-7.91-3.02-12.33-4.1C1365.83,3406.5,1364.72,3404.39,1365.4,3402.44z"/>
			</g>
			<path class="st5" d="M1336.89,3523.37c1.06,0.35,1.77,1.13,2.19,2.35c0.39,1.06-0.13,2.25-1.16,2.7
				c-9.08,3.96-30.77-15.03-35.92-21.43c-0.55-0.64-1.51-0.71-2.09-0.1c-8.4,8.69-24.23,22.11-35.98,21.79
				c-1.03-0.03-1.93-0.64-2.35-1.58c-0.68-1.58,0.19-2.61,1.71-3.15c9.56-3.44,17.76-8.72,24.62-15.9
				c11.23-11.71,6.47-26.65-7.31-32.99c-10.17-4.7-15.54-19.12,0.26-20.15c5.99-0.39,59.34-5.31,48.14,12.97
				c-6.34,10.39-22.75,8.75-22.91,25.68C1305.96,3508.44,1324.34,3519.29,1336.89,3523.37L1336.89,3523.37z"/>
		</g>
		<g>
			<path class="st6" d="M1374.38,2803.63l-3.17-0.93c-32.4-9.5-57.61-35.02-66.71-67.53l-0.89-3.18c-0.52-1.85-2.01-2.83-3.58-2.96
				c-1.56,0.13-3.06,1.11-3.58,2.96l-0.89,3.18c-9.1,32.51-34.32,58.03-66.71,67.53l-3.17,0.93c-3.94,1.16-3.91,6.75,0.05,7.85
				l3.18,0.89c32.51,9.1,58.03,34.31,67.53,66.71l0.93,3.17c0.43,1.46,1.47,2.37,2.66,2.74c1.19-0.37,2.24-1.28,2.66-2.74l0.93-3.17
				c9.5-32.4,35.02-57.61,67.53-66.71l3.18-0.89C1378.28,2810.38,1378.32,2804.78,1374.38,2803.63z"/>
			<path class="st6" d="M1863.29,3079.87l-1.03,0.49c-10.53,5.03-22.91,4.28-32.75-1.99l-0.96-0.61c-0.56-0.36-1.17-0.26-1.6,0.06
				c-0.37,0.4-0.53,0.99-0.24,1.59l0.5,1.02c3.98,8.07,4.51,17.28,1.74,25.62c-90.63,45.99-217.68,77.78-310.74,47.67
				c-7.52-2.44-14.85-5.23-21.9-8.5c-24.58-11.41-47.4-25.59-68.23-41.99c-59.43-46.8-102.37-112.17-121.23-186.44
				c-0.79-3.12-3.59-4.5-6.17-4.15c-0.22-0.03-0.43-0.03-0.65-0.03v-0.02c-0.06,0-0.12,0.01-0.18,0.01c-0.06,0-0.12-0.01-0.18-0.01
				v0.02c-0.22,0.01-0.44,0-0.65,0.03c-2.58-0.35-5.37,1.02-6.17,4.15c-18.86,74.27-61.8,139.63-121.23,186.44
				c-20.84,16.41-43.66,30.58-68.23,41.99c-7.04,3.27-14.37,6.06-21.89,8.5c-93.06,30.12-220.11-1.68-310.74-47.67
				c-2.77-8.34-2.24-17.55,1.74-25.62l0.5-1.02c0.29-0.59,0.13-1.19-0.24-1.59c-0.43-0.33-1.04-0.42-1.6-0.06l-0.96,0.61
				c-9.84,6.27-22.22,7.02-32.75,1.99l-1.03-0.49c-1.28-0.61-2.56,0.84-1.8,2.03l0.61,0.96c6.27,9.84,7.02,22.22,1.99,32.75
				l-0.49,1.03c-0.23,0.48-0.17,0.95,0.05,1.32c0.39,0.18,0.87,0.19,1.32-0.09l0.97-0.6c7.11-4.41,15.47-5.76,23.5-4.39
				c1.61,1.61,4.43,5.95,4.84,6.45c33.21,41.23,105.86,103.51,194.95,224.31c1.71,2.32,4.91,2.95,7.38,1.45
				c83.7-50.8,176.11-80.93,270.18-90.49c19.86-2.02,39.8-3.17,59.75-3.35v0c0.06,0,0.12,0,0.18,0c0.06,0,0.12,0,0.18,0v0
				c19.95,0.18,39.88,1.33,59.75,3.35c94.07,9.55,186.48,39.69,270.18,90.49c2.47,1.5,5.67,0.87,7.38-1.45
				c89.1-120.8,161.74-183.07,194.95-224.31c0.41-0.5,3.23-4.84,4.84-6.45c8.03-1.37,16.39-0.01,23.5,4.39l0.97,0.6
				c0.45,0.28,0.93,0.27,1.32,0.09c0.22-0.37,0.28-0.85,0.05-1.32l-0.49-1.03c-5.03-10.53-4.27-22.91,1.99-32.75l0.61-0.96
				C1865.85,3080.71,1864.57,3079.26,1863.29,3079.87z"/>
		</g>
	</g>
	<g>
		<path class="st7" d="M1959.56,3105.17h28.14v217.84h104.93v25.36h-133.07V3105.17z"/>
		<path class="st7" d="M2137.8,3281.32v-113.61h27.45v112.57c0,28.84,21.19,47.6,46.56,47.6c28.49,0,50.73-21.89,50.73-51.77v-108.4
			h27.45v180.67h-27.45v-26.4h-2.08c-7.64,16.33-27.1,30.92-55.24,30.92C2163.16,3352.89,2137.8,3321.27,2137.8,3281.32z"/>
		<path class="st7" d="M2349.04,3167.71h27.45v26.41h2.08c7.64-16.33,27.1-30.92,55.24-30.92c42.04,0,67.4,31.62,67.4,71.57v113.61
			h-27.45V3236.5c0-28.84-21.19-47.6-46.56-47.6c-28.49,0-50.73,21.89-50.73,51.77v107.7h-27.45V3167.71z"/>
		<path class="st7" d="M2786.46,3167.71h27.1v33.7h2.08c5.21-15.29,22.93-33.7,49.34-33.7h15.29v27.45h-14.94
			c-33.01,0-51.42,25.71-51.42,60.11v93.11h-27.45V3167.71z"/>
		<path class="st7" d="M2950.45,3410.83l26.75-68.45l-71.92-174.76h35.44l52.46,133.07h1.39l53.16-133.07H3079l-69.14,176.15
			l-26.06,67.06H2950.45z"/>
		<path class="st7" d="M2743.91,3247.16c0,49.61-40.22,89.83-89.83,89.83c-49.61,0-89.83-40.22-89.83-89.83
			c0-38.21,23.86-70.84,57.48-83.82c-16.12,14.73-26.37,36.72-26.37,61.24c0,44.27,33.41,80.3,74.49,80.3
			c37.04,0,67.84-29.29,73.53-67.5C2743.73,3240.58,2743.91,3243.84,2743.91,3247.16z"/>
	</g>
</g>
</svg>
